# xmcd
#
# Track frame offsets:
#	150
#	6555
#	32307
#	52245
#	65032
#	85347
#	104015
#	127270
#	146517
#	165090
#	183662
#	205402
#	223487
#	243580
#
# Disc length: 3468 seconds
#
# Revision: 1
# Processed by: cddbd v1.5.1PL0 Copyright (c) Steve Scherf et al.
# Submitted via: CDex 1.50Beta5
#
DISCID=de0d8a0e
DTITLE=鈴木康博 - ニュー・ベスト・ナウ
DYEAR=1987
DGENRE=Pop
TTITLE0=Hello Again
TTITLE1=愛をよろしく
TTITLE2=瑠璃色の夜明け
TTITLE3=夏の日の午后
TTITLE4=SO LONG
TTITLE5=素敵にシンデレラ・コンプレックス
TTITLE6=帰らないで
TTITLE7=SEASON OFF
TTITLE8=微笑のうしろに
TTITLE9=エレガントプログラム
TTITLE10=ある晴れた日に
TTITLE11=City Woman
TTITLE12=東京っていう街で
TTITLE13=Together
EXTD=
EXTT0=
EXTT1=
EXTT2=
EXTT3=
EXTT4=
EXTT5=
EXTT6=
EXTT7=
EXTT8=
EXTT9=
EXTT10=
EXTT11=
EXTT12=
EXTT13=
PLAYORDER=
